<svg width="40" height="40" fill="none" xmlns="http://www.w3.org/2000/svg"><g clip-path="url(#clip0_590_123)" fill="#fff"><path d="M23.225 39.74zM23.625 39.671l-.24.042.24-.042zM22.276 39.87zM22.66 39.823zM24.17 39.563l-.212.045.211-.044zM25.52 39.227c-.056.017-.113.032-.17.048l.17-.047zM25.112 39.34l-.186.048.186-.049zM24.577 39.473l-.197.044.197-.044zM21.682 39.929z"/><path d="M40 20C40 8.956 31.044 0 20 0S0 8.956 0 20s8.956 20 20 20c.117 0 .234-.002.352-.005V24.426h-4.297V19.42h4.297v-3.685c0-4.274 2.608-6.6 6.42-6.6 1.826 0 3.396.136 3.853.197v4.466h-2.629c-2.074 0-2.475.986-2.475 2.432v3.19h4.959l-.647 5.007h-4.312v14.801C33.88 36.831 40 29.13 40 20zM21.321 39.956zM20.684 39.987z"/></g><defs><clipPath id="clip0_590_123"><path fill="#fff" d="M0 0h40v40H0z"/></clipPath></defs></svg>